<svg width="1920" height="986" xmlns="http://www.w3.org/2000/svg"><g><path d="M-51,-55L-113,283L-72,188Z" fill="#d33e42" stroke="#d33e42"/><path d="M-51,-55L-72,188L-48,76Z" fill="#cb2c37" stroke="#cb2c37"/><path d="M-51,-55L-48,76L60,-58Z" fill="#c0182c" stroke="#c0182c"/><path d="M-51,-55L60,-58L221,-72Z" fill="#be182a" stroke="#be182a"/><path d="M60,-58L-48,76L109,61Z" fill="#cb2c37" stroke="#cb2c37"/><path d="M60,-58L109,61L221,-72Z" fill="#c92a34" stroke="#c92a34"/><path d="M221,-72L109,61L240,74Z" fill="#d54140" stroke="#d54140"/><path d="M221,-72L240,74L310,51Z" fill="#d94a45" stroke="#d94a45"/><path d="M221,-72L310,51L364,-34Z" fill="#d64444" stroke="#d64444"/><path d="M221,-72L364,-34L416,-43Z" fill="#d33f42" stroke="#d33f42"/><path d="M221,-72L416,-43L561,-73Z" fill="#d44747" stroke="#d44747"/><path d="M221,-72L561,-73L816,-103Z" fill="#d75955" stroke="#d75955"/><path d="M364,-34L310,51L415,105Z" fill="#e46055" stroke="#e46055"/><path d="M364,-34L415,105L416,-43Z" fill="#e15c53" stroke="#e15c53"/><path d="M416,-43L415,105L599,97Z" fill="#ed7563" stroke="#ed7563"/><path d="M416,-43L599,97L561,-73Z" fill="#e46760" stroke="#e46760"/><path d="M561,-73L599,97L668,38Z" fill="#ea7971" stroke="#ea7971"/><path d="M561,-73L668,38L738,-43Z" fill="#e37070" stroke="#e37070"/><path d="M561,-73L738,-43L816,-103Z" fill="#dc6c6f" stroke="#dc6c6f"/><path d="M738,-43L668,38L837,64Z" fill="#ea8683" stroke="#ea8683"/><path d="M738,-43L837,64L816,-103Z" fill="#dd787f" stroke="#dd787f"/><path d="M816,-103L837,64L983,54Z" fill="#db848c" stroke="#db848c"/><path d="M816,-103L983,54L1005,-85Z" fill="#cd7588" stroke="#cd7588"/><path d="M816,-103L1005,-85L1393,-87Z" fill="#b46b7f" stroke="#b46b7f"/><path d="M816,-103L1393,-87L1989,-100Z" fill="#814e6e" stroke="#814e6e"/><path d="M1005,-85L983,54L1080,-28Z" fill="#c77a8c" stroke="#c77a8c"/><path d="M1005,-85L1080,-28L1236,-73Z" fill="#b46982" stroke="#b46982"/><path d="M1005,-85L1236,-73L1393,-87Z" fill="#a3627b" stroke="#a3627b"/><path d="M1080,-28L983,54L1096,47Z" fill="#cb8692" stroke="#cb8692"/><path d="M1080,-28L1096,47L1236,-73Z" fill="#b87288" stroke="#b87288"/><path d="M1236,-73L1096,47L1223,106Z" fill="#ba7e8e" stroke="#ba7e8e"/><path d="M1236,-73L1223,106L1326,110Z" fill="#b27d8d" stroke="#b27d8d"/><path d="M1236,-73L1326,110L1393,-87Z" fill="#9d627f" stroke="#9d627f"/><path d="M1393,-87L1326,110L1482,76Z" fill="#986a83" stroke="#986a83"/><path d="M1393,-87L1482,76L1535,-42Z" fill="#875377" stroke="#875377"/><path d="M1393,-87L1535,-42L1706,-83Z" fill="#78406a" stroke="#78406a"/><path d="M1393,-87L1706,-83L1989,-100Z" fill="#6a3260" stroke="#6a3260"/><path d="M1535,-42L1482,76L1585,86Z" fill="#8c5f7d" stroke="#8c5f7d"/><path d="M1535,-42L1585,86L1630,-15Z" fill="#835176" stroke="#835176"/><path d="M1535,-42L1630,-15L1706,-83Z" fill="#773b6a" stroke="#773b6a"/><path d="M1630,-15L1585,86L1774,40Z" fill="#825277" stroke="#825277"/><path d="M1630,-15L1774,40L1706,-83Z" fill="#763d6c" stroke="#763d6c"/><path d="M1706,-83L1774,40L1893,-28Z" fill="#6f3366" stroke="#6f3366"/><path d="M1706,-83L1893,-28L1989,-100Z" fill="#61225b" stroke="#61225b"/><path d="M1893,-28L1774,40L1870,74Z" fill="#743e6d" stroke="#743e6d"/><path d="M1893,-28L1870,74L2013,68Z" fill="#713a6a" stroke="#713a6a"/><path d="M1893,-28L2013,68L1989,-100Z" fill="#67245f" stroke="#67245f"/><path d="M1989,-100L2013,68L2063,337Z" fill="#7c4570" stroke="#7c4570"/><path d="M-48,76L-72,188L29,195Z" fill="#d64b49" stroke="#d64b49"/><path d="M-48,76L29,195L109,61Z" fill="#d94644" stroke="#d94644"/><path d="M109,61L29,195L198,242Z" fill="#e16557" stroke="#e16557"/><path d="M109,61L198,242L240,74Z" fill="#e66251" stroke="#e66251"/><path d="M240,74L198,242L330,223Z" fill="#ec7f65" stroke="#ec7f65"/><path d="M240,74L330,223L310,51Z" fill="#ed6e5a" stroke="#ed6e5a"/><path d="M310,51L330,223L415,105Z" fill="#f27a62" stroke="#f27a62"/><path d="M415,105L330,223L456,194Z" fill="#f59173" stroke="#f59173"/><path d="M415,105L456,194L599,97Z" fill="#fa9073" stroke="#fa9073"/><path d="M599,97L456,194L608,145Z" fill="#fb9c7f" stroke="#fb9c7f"/><path d="M599,97L608,145L668,38Z" fill="#f7937f" stroke="#f7937f"/><path d="M668,38L608,145L741,167Z" fill="#fc9f8a" stroke="#fc9f8a"/><path d="M668,38L741,167L837,64Z" fill="#f69c8f" stroke="#f69c8f"/><path d="M837,64L741,167L878,155Z" fill="#f5ab9c" stroke="#f5ab9c"/><path d="M837,64L878,155L983,54Z" fill="#e8a09c" stroke="#e8a09c"/><path d="M983,54L878,155L955,233Z" fill="#eab3aa" stroke="#eab3aa"/><path d="M983,54L955,233L1127,171Z" fill="#e0b2ab" stroke="#e0b2ab"/><path d="M983,54L1127,171L1096,47Z" fill="#d49a9d" stroke="#d49a9d"/><path d="M1096,47L1127,171L1223,106Z" fill="#cd9a9d" stroke="#cd9a9d"/><path d="M1223,106L1127,171L1192,244Z" fill="#cbaeab" stroke="#cbaeab"/><path d="M1223,106L1192,244L1326,110Z" fill="#c1a1a2" stroke="#c1a1a2"/><path d="M1326,110L1192,244L1376,200Z" fill="#b9a6a7" stroke="#b9a6a7"/><path d="M1326,110L1376,200L1456,168Z" fill="#aa949c" stroke="#aa949c"/><path d="M1326,110L1456,168L1482,76Z" fill="#a38390" stroke="#a38390"/><path d="M1482,76L1456,168L1585,86Z" fill="#9a788b" stroke="#9a788b"/><path d="M1585,86L1456,168L1674,200Z" fill="#988090" stroke="#988090"/><path d="M1585,86L1674,200L1774,40Z" fill="#8e6882" stroke="#8e6882"/><path d="M1774,40L1674,200L1785,166Z" fill="#8c6a84" stroke="#8c6a84"/><path d="M1774,40L1785,166L1870,74Z" fill="#825779" stroke="#825779"/><path d="M1870,74L1785,166L1926,198Z" fill="#836382" stroke="#836382"/><path d="M1870,74L1926,198L2013,68Z" fill="#7e5176" stroke="#7e5176"/><path d="M2013,68L1926,198L2009,203Z" fill="#805b7e" stroke="#805b7e"/><path d="M2013,68L2009,203L2063,337Z" fill="#806688" stroke="#806688"/><path d="M-72,188L-113,283L29,195Z" fill="#d55f59" stroke="#d55f59"/><path d="M29,195L-113,283L64,370Z" fill="#d8766f" stroke="#d8766f"/><path d="M29,195L64,370L171,331Z" fill="#df887b" stroke="#df887b"/><path d="M29,195L171,331L198,242Z" fill="#e38570" stroke="#e38570"/><path d="M198,242L171,331L335,325Z" fill="#ea9e85" stroke="#ea9e85"/><path d="M198,242L335,325L330,223Z" fill="#ee9e7f" stroke="#ee9e7f"/><path d="M330,223L335,325L456,194Z" fill="#f3a684" stroke="#f3a684"/><path d="M456,194L335,325L468,353Z" fill="#f6b797" stroke="#f6b797"/><path d="M456,194L468,353L630,324Z" fill="#fac4a3" stroke="#fac4a3"/><path d="M456,194L630,324L608,145Z" fill="#fbb694" stroke="#fbb694"/><path d="M608,145L630,324L666,305Z" fill="#fdc9a9" stroke="#fdc9a9"/><path d="M608,145L666,305L741,167Z" fill="#fdbda0" stroke="#fdbda0"/><path d="M741,167L666,305L796,280Z" fill="#fdd2b4" stroke="#fdd2b4"/><path d="M741,167L796,280L878,155Z" fill="#f6c3ad" stroke="#f6c3ad"/><path d="M878,155L796,280L955,233Z" fill="#f0ccb9" stroke="#f0ccb9"/><path d="M955,233L796,280L882,429Z" fill="#f0e4d5" stroke="#f0e4d5"/><path d="M955,233L882,429L1008,319Z" fill="#e9e8e0" stroke="#e9e8e0"/><path d="M955,233L1008,319L1108,299Z" fill="#e0dad0" stroke="#e0dad0"/><path d="M955,233L1108,299L1127,171Z" fill="#dbcabf" stroke="#dbcabf"/><path d="M1127,171L1108,299L1192,244Z" fill="#d0c6bd" stroke="#d0c6bd"/><path d="M1192,244L1108,299L1225,318Z" fill="#ccd0cb" stroke="#ccd0cb"/><path d="M1192,244L1225,318L1326,290Z" fill="#c1c9c7" stroke="#c1c9c7"/><path d="M1192,244L1326,290L1376,200Z" fill="#b9bbb7" stroke="#b9bbb7"/><path d="M1376,200L1326,290L1485,353Z" fill="#a9b9bd" stroke="#a9b9bd"/><path d="M1376,200L1485,353L1456,168Z" fill="#a1aaae" stroke="#a1aaae"/><path d="M1456,168L1485,353L1626,308Z" fill="#9bacb5" stroke="#9bacb5"/><path d="M1456,168L1626,308L1674,200Z" fill="#9798a3" stroke="#9798a3"/><path d="M1674,200L1626,308L1735,299Z" fill="#909bab" stroke="#909bab"/><path d="M1674,200L1735,299L1785,166Z" fill="#8d889b" stroke="#8d889b"/><path d="M1785,166L1735,299L1860,317Z" fill="#888fa3" stroke="#888fa3"/><path d="M1785,166L1860,317L1926,198Z" fill="#847f96" stroke="#847f96"/><path d="M1926,198L1860,317L2009,203Z" fill="#807c96" stroke="#807c96"/><path d="M2009,203L1860,317L2063,337Z" fill="#8083a3" stroke="#8083a3"/><path d="M-113,283L-113,1089L-103,1015Z" fill="#704b7c" stroke="#704b7c"/><path d="M-113,283L-103,1015L-73,763Z" fill="#8e6588" stroke="#8e6588"/><path d="M-113,283L-73,763L-78,503Z" fill="#c87e8f" stroke="#c87e8f"/><path d="M-113,283L-78,503L64,370Z" fill="#d5858a" stroke="#d5858a"/><path d="M64,370L-78,503L63,410Z" fill="#d88e91" stroke="#d88e91"/><path d="M64,370L63,410L171,331Z" fill="#e09b93" stroke="#e09b93"/><path d="M171,331L63,410L154,465Z" fill="#e19f98" stroke="#e19f98"/><path d="M171,331L154,465L364,422Z" fill="#e9ae9f" stroke="#e9ae9f"/><path d="M171,331L364,422L335,325Z" fill="#eeb49f" stroke="#eeb49f"/><path d="M335,325L364,422L468,353Z" fill="#f4c5ad" stroke="#f4c5ad"/><path d="M468,353L364,422L426,494Z" fill="#f4cab5" stroke="#f4cab5"/><path d="M468,353L426,494L611,499Z" fill="#f8d5c1" stroke="#f8d5c1"/><path d="M468,353L611,499L630,324Z" fill="#fbdcc6" stroke="#fbdcc6"/><path d="M630,324L611,499L680,410Z" fill="#fce4d2" stroke="#fce4d2"/><path d="M630,324L680,410L666,305Z" fill="#fde1c9" stroke="#fde1c9"/><path d="M666,305L680,410L796,280Z" fill="#fee4cd" stroke="#fee4cd"/><path d="M796,280L680,410L882,429Z" fill="#f8efe0" stroke="#f8efe0"/><path d="M1008,319L882,429L979,427Z" fill="#e8f2f0" stroke="#e8f2f0"/><path d="M1008,319L979,427L1084,426Z" fill="#dfeeee" stroke="#dfeeee"/><path d="M1008,319L1084,426L1108,299Z" fill="#dae6e4" stroke="#dae6e4"/><path d="M1108,299L1084,426L1225,318Z" fill="#d1e1e1" stroke="#d1e1e1"/><path d="M1225,318L1084,426L1265,503Z" fill="#c9e3ea" stroke="#c9e3ea"/><path d="M1225,318L1265,503L1326,290Z" fill="#bddbe2" stroke="#bddbe2"/><path d="M1326,290L1265,503L1362,492Z" fill="#b4d6e4" stroke="#b4d6e4"/><path d="M1326,290L1362,492L1485,353Z" fill="#a9cedc" stroke="#a9cedc"/><path d="M1485,353L1362,492L1493,410Z" fill="#a0c9db" stroke="#a0c9db"/><path d="M1485,353L1493,410L1626,308Z" fill="#9bbdd0" stroke="#9bbdd0"/><path d="M1626,308L1493,410L1673,479Z" fill="#96bbd3" stroke="#96bbd3"/><path d="M1626,308L1673,479L1735,299Z" fill="#90b1ca" stroke="#90b1ca"/><path d="M1735,299L1673,479L1779,439Z" fill="#8caecd" stroke="#8caecd"/><path d="M1735,299L1779,439L1860,317Z" fill="#88a4c1" stroke="#88a4c1"/><path d="M1860,317L1779,439L1921,455Z" fill="#83a3c7" stroke="#83a3c7"/><path d="M1860,317L1921,455L2063,337Z" fill="#809ac0" stroke="#809ac0"/><path d="M2063,337L1921,455L2034,435Z" fill="#7f94c0" stroke="#7f94c0"/><path d="M2063,337L2034,435L2052,554Z" fill="#7e90c1" stroke="#7e90c1"/><path d="M2063,337L2052,554L2048,765Z" fill="#6b8bc4" stroke="#6b8bc4"/><path d="M-78,503L-73,763L-40,541Z" fill="#af7991" stroke="#af7991"/><path d="M-78,503L-40,541L63,410Z" fill="#d48993" stroke="#d48993"/><path d="M63,410L-40,541L83,601Z" fill="#d18f98" stroke="#d18f98"/><path d="M63,410L83,601L154,465Z" fill="#dd9b9c" stroke="#dd9b9c"/><path d="M154,465L83,601L165,627Z" fill="#ca9a9f" stroke="#ca9a9f"/><path d="M154,465L165,627L362,588Z" fill="#d2a8a5" stroke="#d2a8a5"/><path d="M154,465L362,588L364,422Z" fill="#ebb7ac" stroke="#ebb7ac"/><path d="M364,422L362,588L426,494Z" fill="#eec4b6" stroke="#eec4b6"/><path d="M426,494L362,588L411,616Z" fill="#dcc1b8" stroke="#dcc1b8"/><path d="M426,494L411,616L615,548Z" fill="#e5cec1" stroke="#e5cec1"/><path d="M426,494L615,548L611,499Z" fill="#f2d9cb" stroke="#f2d9cb"/><path d="M611,499L615,548L753,591Z" fill="#eae2db" stroke="#eae2db"/><path d="M611,499L753,591L680,410Z" fill="#f9e8de" stroke="#f9e8de"/><path d="M680,410L753,591L862,541Z" fill="#f1ede7" stroke="#f1ede7"/><path d="M680,410L862,541L882,429Z" fill="#f4efe8" stroke="#f4efe8"/><path d="M882,429L862,541L979,427Z" fill="#ebf1f1" stroke="#ebf1f1"/><path d="M979,427L862,541L932,632Z" fill="#dceef5" stroke="#dceef5"/><path d="M979,427L932,632L1087,610Z" fill="#cdebf6" stroke="#cdebf6"/><path d="M979,427L1087,610L1084,426Z" fill="#d9ecf4" stroke="#d9ecf4"/><path d="M1084,426L1087,610L1215,604Z" fill="#bfe3f1" stroke="#bfe3f1"/><path d="M1084,426L1215,604L1265,503Z" fill="#c2e2ef" stroke="#c2e2ef"/><path d="M1265,503L1215,604L1318,563Z" fill="#a7d6eb" stroke="#a7d6eb"/><path d="M1265,503L1318,563L1362,492Z" fill="#abd4e8" stroke="#abd4e8"/><path d="M1362,492L1318,563L1461,623Z" fill="#94cae5" stroke="#94cae5"/><path d="M1362,492L1461,623L1493,410Z" fill="#9ac8e1" stroke="#9ac8e1"/><path d="M1493,410L1461,623L1591,573Z" fill="#8cbfde" stroke="#8cbfde"/><path d="M1493,410L1591,573L1673,479Z" fill="#94bcda" stroke="#94bcda"/><path d="M1673,479L1591,573L1671,670Z" fill="#77b0d7" stroke="#77b0d7"/><path d="M1673,479L1671,670L1797,614Z" fill="#6ea8d4" stroke="#6ea8d4"/><path d="M1673,479L1797,614L1779,439Z" fill="#83abd2" stroke="#83abd2"/><path d="M1779,439L1797,614L1899,567Z" fill="#74a1cf" stroke="#74a1cf"/><path d="M1779,439L1899,567L1921,455Z" fill="#80a1cc" stroke="#80a1cc"/><path d="M1921,455L1899,567L2052,554Z" fill="#7396c8" stroke="#7396c8"/><path d="M1921,455L2052,554L2034,435Z" fill="#7d95c5" stroke="#7d95c5"/><path d="M-40,541L-73,763L94,675Z" fill="#9f7691" stroke="#9f7691"/><path d="M-40,541L94,675L83,601Z" fill="#b78a98" stroke="#b78a98"/><path d="M83,601L94,675L165,627Z" fill="#b28e9c" stroke="#b28e9c"/><path d="M165,627L94,675L232,685Z" fill="#ab8f9d" stroke="#ab8f9d"/><path d="M165,627L232,685L362,588Z" fill="#bda4a6" stroke="#bda4a6"/><path d="M362,588L232,685L308,763Z" fill="#ae9fa7" stroke="#ae9fa7"/><path d="M362,588L308,763L411,616Z" fill="#bbaeb0" stroke="#bbaeb0"/><path d="M411,616L308,763L445,706Z" fill="#aea8b0" stroke="#aea8b0"/><path d="M411,616L445,706L619,674Z" fill="#bfbebe" stroke="#bfbebe"/><path d="M411,616L619,674L615,548Z" fill="#d4d0cb" stroke="#d4d0cb"/><path d="M615,548L619,674L703,683Z" fill="#cdd6d7" stroke="#cdd6d7"/><path d="M615,548L703,683L753,591Z" fill="#d8e0df" stroke="#d8e0df"/><path d="M753,591L703,683L876,752Z" fill="#bad6e3" stroke="#bad6e3"/><path d="M753,591L876,752L932,632Z" fill="#b9dceb" stroke="#b9dceb"/><path d="M753,591L932,632L862,541Z" fill="#d2e8ee" stroke="#d2e8ee"/><path d="M932,632L876,752L944,713Z" fill="#a4d3ed" stroke="#a4d3ed"/><path d="M932,632L944,713L1087,610Z" fill="#afdef4" stroke="#afdef4"/><path d="M1087,610L944,713L1113,698Z" fill="#9ed4ef" stroke="#9ed4ef"/><path d="M1087,610L1113,698L1216,670Z" fill="#98d2ed" stroke="#98d2ed"/><path d="M1087,610L1216,670L1215,604Z" fill="#9fd7ef" stroke="#9fd7ef"/><path d="M1215,604L1216,670L1318,563Z" fill="#99d4ec" stroke="#99d4ec"/><path d="M1318,563L1216,670L1315,749Z" fill="#82c5e6" stroke="#82c5e6"/><path d="M1318,563L1315,749L1461,623Z" fill="#7ac0e3" stroke="#7ac0e3"/><path d="M1461,623L1315,749L1462,697Z" fill="#61b0dc" stroke="#61b0dc"/><path d="M1461,623L1462,697L1591,573Z" fill="#6fb6dd" stroke="#6fb6dd"/><path d="M1591,573L1462,697L1671,670Z" fill="#64abd8" stroke="#64abd8"/><path d="M1797,614L1671,670L1769,715Z" fill="#5097ce" stroke="#5097ce"/><path d="M1797,614L1769,715L1841,760Z" fill="#418ac9" stroke="#418ac9"/><path d="M1797,614L1841,760L1899,567Z" fill="#5192cb" stroke="#5192cb"/><path d="M1899,567L1841,760L1972,800Z" fill="#347dc3" stroke="#347dc3"/><path d="M1899,567L1972,800L2048,765Z" fill="#3376bf" stroke="#3376bf"/><path d="M1899,567L2048,765L2052,554Z" fill="#5388c5" stroke="#5388c5"/><path d="M-73,763L-103,1015L-48,840Z" fill="#663c76" stroke="#663c76"/><path d="M-73,763L-48,840L40,874Z" fill="#714d7e" stroke="#714d7e"/><path d="M-73,763L40,874L94,675Z" fill="#7e6088" stroke="#7e6088"/><path d="M94,675L40,874L207,835Z" fill="#81698c" stroke="#81698c"/><path d="M94,675L207,835L232,685Z" fill="#928097" stroke="#928097"/><path d="M232,685L207,835L308,763Z" fill="#90859a" stroke="#90859a"/><path d="M308,763L207,835L363,808Z" fill="#8c829a" stroke="#8c829a"/><path d="M308,763L363,808L445,706Z" fill="#9996a8" stroke="#9996a8"/><path d="M445,706L363,808L503,824Z" fill="#999cad" stroke="#999cad"/><path d="M445,706L503,824L619,674Z" fill="#a5b0bc" stroke="#a5b0bc"/><path d="M619,674L503,824L609,827Z" fill="#9eadc0" stroke="#9eadc0"/><path d="M619,674L609,827L703,683Z" fill="#aac0ce" stroke="#aac0ce"/><path d="M703,683L609,827L691,833Z" fill="#9fb6cc" stroke="#9fb6cc"/><path d="M703,683L691,833L876,752Z" fill="#a1c3d9" stroke="#a1c3d9"/><path d="M876,752L691,833L843,892Z" fill="#91b4d5" stroke="#91b4d5"/><path d="M876,752L843,892L1022,855Z" fill="#85b5de" stroke="#85b5de"/><path d="M876,752L1022,855L944,713Z" fill="#8cc2e8" stroke="#8cc2e8"/><path d="M944,713L1022,855L1058,796Z" fill="#82bde5" stroke="#82bde5"/><path d="M944,713L1058,796L1113,698Z" fill="#88c6ea" stroke="#88c6ea"/><path d="M1113,698L1058,796L1191,882Z" fill="#73b4e1" stroke="#73b4e1"/><path d="M1113,698L1191,882L1216,670Z" fill="#73bae4" stroke="#73bae4"/><path d="M1216,670L1191,882L1315,749Z" fill="#66b0de" stroke="#66b0de"/><path d="M1315,749L1191,882L1322,894Z" fill="#549cd4" stroke="#549cd4"/><path d="M1315,749L1322,894L1520,841Z" fill="#4493cf" stroke="#4493cf"/><path d="M1315,749L1520,841L1462,697Z" fill="#479dd4" stroke="#479dd4"/><path d="M1462,697L1520,841L1591,835Z" fill="#3b8ecc" stroke="#3b8ecc"/><path d="M1462,697L1591,835L1671,670Z" fill="#4296d0" stroke="#4296d0"/><path d="M1671,670L1591,835L1748,812Z" fill="#3485c8" stroke="#3485c8"/><path d="M1671,670L1748,812L1769,715Z" fill="#3888c9" stroke="#3888c9"/><path d="M1769,715L1748,812L1841,760Z" fill="#2d7cc3" stroke="#2d7cc3"/><path d="M1841,760L1748,812L1853,805Z" fill="#2673be" stroke="#2673be"/><path d="M1841,760L1853,805L1972,800Z" fill="#226dbb" stroke="#226dbb"/><path d="M2048,765L1972,800L2035,1006Z" fill="#1552ad" stroke="#1552ad"/><path d="M-48,840L-103,1015L29,1015Z" fill="#5a2e6f" stroke="#5a2e6f"/><path d="M-48,840L29,1015L40,874Z" fill="#653f77" stroke="#653f77"/><path d="M40,874L29,1015L153,935Z" fill="#654378" stroke="#654378"/><path d="M40,874L153,935L207,835Z" fill="#745984" stroke="#745984"/><path d="M207,835L153,935L305,984Z" fill="#745e85" stroke="#745e85"/><path d="M207,835L305,984L363,808Z" fill="#807191" stroke="#807191"/><path d="M363,808L305,984L442,995Z" fill="#7c7194" stroke="#7c7194"/><path d="M363,808L442,995L503,824Z" fill="#8986a1" stroke="#8986a1"/><path d="M503,824L442,995L567,1006Z" fill="#8180a2" stroke="#8180a2"/><path d="M503,824L567,1006L609,827Z" fill="#8b93b1" stroke="#8b93b1"/><path d="M609,827L567,1006L697,1000Z" fill="#838db3" stroke="#838db3"/><path d="M609,827L697,1000L691,833Z" fill="#8d9fc0" stroke="#8d9fc0"/><path d="M691,833L697,1000L843,892Z" fill="#89a1c7" stroke="#89a1c7"/><path d="M843,892L697,1000L866,1007Z" fill="#7a95c5" stroke="#7a95c5"/><path d="M843,892L866,1007L968,946Z" fill="#749bcf" stroke="#749bcf"/><path d="M843,892L968,946L1022,855Z" fill="#78a7d9" stroke="#78a7d9"/><path d="M1022,855L968,946L1145,965Z" fill="#679dd5" stroke="#679dd5"/><path d="M1022,855L1145,965L1191,882Z" fill="#619cd4" stroke="#619cd4"/><path d="M1022,855L1191,882L1058,796Z" fill="#6eabdc" stroke="#6eabdc"/><path d="M1191,882L1145,965L1225,1006Z" fill="#508dcc" stroke="#508dcc"/><path d="M1191,882L1225,1006L1322,894Z" fill="#4b8ccc" stroke="#4b8ccc"/><path d="M1322,894L1225,1006L1386,932Z" fill="#3d82c7" stroke="#3d82c7"/><path d="M1322,894L1386,932L1520,841Z" fill="#3683c7" stroke="#3683c7"/><path d="M1520,841L1386,932L1519,928Z" fill="#2c7bc2" stroke="#2c7bc2"/><path d="M1520,841L1519,928L1591,835Z" fill="#2d7cc3" stroke="#2d7cc3"/><path d="M1591,835L1519,928L1642,979Z" fill="#236ebb" stroke="#236ebb"/><path d="M1591,835L1642,979L1748,812Z" fill="#246fbc" stroke="#246fbc"/><path d="M1748,812L1642,979L1716,1005Z" fill="#175fb4" stroke="#175fb4"/><path d="M1748,812L1716,1005L1854,945Z" fill="#145bb2" stroke="#145bb2"/><path d="M1748,812L1854,945L1853,805Z" fill="#1c65b7" stroke="#1c65b7"/><path d="M1853,805L1854,945L1972,800Z" fill="#175fb4" stroke="#175fb4"/><path d="M1972,800L1854,945L2035,1006Z" fill="#0b4aaa" stroke="#0b4aaa"/><path d="M-103,1015L-113,1089L29,1015Z" fill="#551864" stroke="#551864"/><path d="M29,1015L-113,1089L54,1088Z" fill="#591b65" stroke="#591b65"/><path d="M29,1015L54,1088L153,935Z" fill="#5f3471" stroke="#5f3471"/><path d="M153,935L54,1088L178,1140Z" fill="#63326f" stroke="#63326f"/><path d="M153,935L178,1140L305,984Z" fill="#694679" stroke="#694679"/><path d="M305,984L178,1140L334,1110Z" fill="#6d4278" stroke="#6d4278"/><path d="M305,984L334,1110L442,995Z" fill="#735a88" stroke="#735a88"/><path d="M442,995L334,1110L500,1152Z" fill="#775688" stroke="#775688"/><path d="M442,995L500,1152L567,1006Z" fill="#7b6996" stroke="#7b6996"/><path d="M567,1006L500,1152L593,1093Z" fill="#7c6799" stroke="#7c6799"/><path d="M567,1006L593,1093L697,1000Z" fill="#7d79a8" stroke="#7d79a8"/><path d="M697,1000L593,1093L711,1136Z" fill="#7e75aa" stroke="#7e75aa"/><path d="M697,1000L711,1136L853,1074Z" fill="#7c7db6" stroke="#7c7db6"/><path d="M697,1000L853,1074L866,1007Z" fill="#7788bf" stroke="#7788bf"/><path d="M866,1007L853,1074L1022,1085Z" fill="#6d84c5" stroke="#6d84c5"/><path d="M866,1007L1022,1085L968,946Z" fill="#698ecd" stroke="#698ecd"/><path d="M968,946L1022,1085L1145,965Z" fill="#5e8ccc" stroke="#5e8ccc"/><path d="M1145,965L1022,1085L1118,1119Z" fill="#577cc4" stroke="#577cc4"/><path d="M1145,965L1118,1119L1225,1006Z" fill="#4e7dc4" stroke="#4e7dc4"/><path d="M1225,1006L1118,1119L1263,1099Z" fill="#4971be" stroke="#4971be"/><path d="M1225,1006L1263,1099L1348,1104Z" fill="#3c6aba" stroke="#3c6aba"/><path d="M1225,1006L1348,1104L1386,932Z" fill="#3672be" stroke="#3672be"/><path d="M1386,932L1348,1104L1445,1107Z" fill="#2963b6" stroke="#2963b6"/><path d="M1386,932L1445,1107L1519,928Z" fill="#216ab9" stroke="#216ab9"/><path d="M1519,928L1445,1107L1624,1060Z" fill="#1b59b1" stroke="#1b59b1"/><path d="M1519,928L1624,1060L1642,979Z" fill="#175cb2" stroke="#175cb2"/><path d="M1642,979L1624,1060L1716,1005Z" fill="#1250ac" stroke="#1250ac"/><path d="M1716,1005L1624,1060L1723,1111Z" fill="#1044a6" stroke="#1044a6"/><path d="M1716,1005L1723,1111L1854,945Z" fill="#0b45a7" stroke="#0b45a7"/><path d="M1854,945L1723,1111L1911,1115Z" fill="#0637a0" stroke="#0637a0"/><path d="M1854,945L1911,1115L1997,1055Z" fill="#00339d" stroke="#00339d"/><path d="M1854,945L1997,1055L2035,1006Z" fill="#00379f" stroke="#00379f"/><path d="M-113,1089L178,1140L54,1088Z" fill="#5c1a64" stroke="#5c1a64"/><path d="M178,1140L500,1152L334,1110Z" fill="#713f79" stroke="#713f79"/><path d="M500,1152L1911,1115L1118,1119Z" fill="#4c66b9" stroke="#4c66b9"/><path d="M500,1152L1118,1119L711,1136Z" fill="#7a6fb0" stroke="#7a6fb0"/><path d="M500,1152L711,1136L593,1093Z" fill="#7d639b" stroke="#7d639b"/><path d="M711,1136L1118,1119L1022,1085Z" fill="#6a78c1" stroke="#6a78c1"/><path d="M711,1136L1022,1085L853,1074Z" fill="#727abb" stroke="#727abb"/><path d="M1118,1119L1911,1115L1723,1111Z" fill="#1841a5" stroke="#1841a5"/><path d="M1118,1119L1723,1111L1445,1107Z" fill="#2451ac" stroke="#2451ac"/><path d="M1118,1119L1445,1107L1348,1104Z" fill="#385eb4" stroke="#385eb4"/><path d="M1118,1119L1348,1104L1263,1099Z" fill="#4265b7" stroke="#4265b7"/><path d="M1445,1107L1723,1111L1624,1060Z" fill="#1745a7" stroke="#1745a7"/></g></svg>